# xmcd CD database file
#
# Track frame offsets:
#	150
#	16803
#	40932
#	62886
#	89211
#	116267
#	147941
#	168953
#	189647
#	206309
#	226478
#
# Disc length: 3238 seconds
#
# Revision: 1
# Processed by: cddbd v1.5.2PL0 Copyright (c) Steve Scherf et al.
# Submitted via: CDex 1.51
#
DISCID=930ca40b
DTITLE=JOHNNY LAWS - Chicago Blues Session Volume 35(My Little Girl)
DYEAR=1994
DGENRE=Blues
TTITLE0=Like A Fish
TTITLE1=Can't Take No More
TTITLE2=Lie To Me
TTITLE3=Somebody Loan Me A Dime
TTITLE4=Cryin For My Baby
TTITLE5=(I'm Your) Hoochie Coochie Man
TTITLE6=I Should Have Quit You
TTITLE7=Big Question
TTITLE8=Don't You Lie
TTITLE9=My Little Girl
TTITLE10=Mother In Law Blues
EXTD=Wolf Records\n\n\n YEAR: 1994
EXTT0=
EXTT1=
EXTT2=
EXTT3=
EXTT4=
EXTT5=
EXTT6=
EXTT7=
EXTT8=
EXTT9=
EXTT10=
PLAYORDER=
